<mxfile host="app.diagrams.net" modified="2024-04-17T13:36:40.806Z" agent="Mozilla/5.0 (Macintosh; Intel Mac OS X 10.15; rv:124.0) Gecko/20100101 Firefox/124.0" etag="sZvmHJJCnq_LSqhezV6m" version="24.2.5" type="github">
  <diagram name="Page-1" id="VRmVRaxK5VWEo5to7TwO">
    <mxGraphModel dx="1105" dy="721" grid="1" gridSize="10" guides="1" tooltips="1" connect="1" arrows="1" fold="1" page="1" pageScale="1" pageWidth="850" pageHeight="1100" math="0" shadow="0">
      <root>
        <mxCell id="0" />
        <mxCell id="1" parent="0" />
        <mxCell id="Xf3rw-poUCyyRdlzcPR5-9" style="edgeStyle=orthogonalEdgeStyle;rounded=0;orthogonalLoop=1;jettySize=auto;html=1;fillColor=#ffe6cc;strokeColor=#d79b00;strokeWidth=2;sketch=1;curveFitting=1;jiggle=2;exitX=0.5;exitY=0;exitDx=0;exitDy=0;" parent="1" source="Xf3rw-poUCyyRdlzcPR5-22" edge="1">
          <mxGeometry relative="1" as="geometry">
            <mxPoint x="660" y="300" as="targetPoint" />
            <mxPoint x="460" y="192" as="sourcePoint" />
            <Array as="points">
              <mxPoint x="460" y="300" />
            </Array>
          </mxGeometry>
        </mxCell>
        <mxCell id="Xf3rw-poUCyyRdlzcPR5-11" value="TakeUpToNQueued" style="edgeLabel;html=1;align=center;verticalAlign=middle;resizable=0;points=[];labelBackgroundColor=none;fontSize=12;" parent="Xf3rw-poUCyyRdlzcPR5-9" vertex="1" connectable="0">
          <mxGeometry x="0.8799" relative="1" as="geometry">
            <mxPoint x="-97" y="-10" as="offset" />
          </mxGeometry>
        </mxCell>
        <mxCell id="Xf3rw-poUCyyRdlzcPR5-1" value="Ordered Set Queue&lt;br&gt;&lt;div&gt;(LinkedHashSet)&lt;/div&gt;&lt;div&gt;&lt;br&gt;&lt;/div&gt;&lt;div&gt;&lt;br&gt;&lt;/div&gt;&lt;div&gt;&lt;br&gt;&lt;/div&gt;&lt;div&gt;&lt;br&gt;&lt;/div&gt;&lt;div&gt;&lt;br&gt;&lt;/div&gt;&lt;div&gt;&lt;br&gt;&lt;/div&gt;&lt;div&gt;&lt;br&gt;&lt;/div&gt;" style="shape=step;perimeter=stepPerimeter;whiteSpace=wrap;html=1;fixedSize=1;rounded=1;sketch=1;curveFitting=1;jiggle=2;fillColor=#d5e8d4;strokeColor=#82b366;shadow=0;textShadow=0;fontStyle=1" parent="1" vertex="1">
          <mxGeometry x="240" y="250" width="260" height="180" as="geometry" />
        </mxCell>
        <mxCell id="Xf3rw-poUCyyRdlzcPR5-10" style="edgeStyle=orthogonalEdgeStyle;rounded=0;orthogonalLoop=1;jettySize=auto;html=1;exitX=0.5;exitY=1;exitDx=0;exitDy=0;fillColor=#ffe6cc;strokeColor=#d79b00;shadow=0;textShadow=0;sketch=1;curveFitting=1;jiggle=2;strokeWidth=2;" parent="1" source="Xf3rw-poUCyyRdlzcPR5-20" edge="1">
          <mxGeometry relative="1" as="geometry">
            <mxPoint x="660" y="380" as="targetPoint" />
            <mxPoint x="470.00074074074064" y="569.9966666666668" as="sourcePoint" />
            <Array as="points">
              <mxPoint x="360" y="380" />
            </Array>
          </mxGeometry>
        </mxCell>
        <mxCell id="Xf3rw-poUCyyRdlzcPR5-12" value="TakeUpToNQueued" style="edgeLabel;html=1;align=center;verticalAlign=middle;resizable=0;points=[];fontSize=12;labelBackgroundColor=none;" parent="Xf3rw-poUCyyRdlzcPR5-10" vertex="1" connectable="0">
          <mxGeometry x="-0.2395" y="1" relative="1" as="geometry">
            <mxPoint x="92" y="-9" as="offset" />
          </mxGeometry>
        </mxCell>
        <mxCell id="Xf3rw-poUCyyRdlzcPR5-2" value="Exists" style="rhombus;whiteSpace=wrap;html=1;fillColor=#ffe6cc;strokeColor=#d79b00;rounded=1;sketch=1;curveFitting=1;jiggle=2;shadow=0;textShadow=0;fontStyle=1" parent="1" vertex="1">
          <mxGeometry x="125" y="305" width="70" height="70" as="geometry" />
        </mxCell>
        <mxCell id="Xf3rw-poUCyyRdlzcPR5-3" style="edgeStyle=orthogonalEdgeStyle;rounded=0;orthogonalLoop=1;jettySize=auto;html=1;exitX=1;exitY=0.5;exitDx=0;exitDy=0;shadow=0;textShadow=0;sketch=1;curveFitting=1;jiggle=2;flowAnimation=0;fillColor=#ffe6cc;strokeColor=#d79b00;strokeWidth=2;entryX=0;entryY=0.5;entryDx=0;entryDy=0;" parent="1" source="Xf3rw-poUCyyRdlzcPR5-2" edge="1" target="Xf3rw-poUCyyRdlzcPR5-1">
          <mxGeometry relative="1" as="geometry">
            <mxPoint x="150" y="280" as="sourcePoint" />
            <mxPoint x="235" y="280" as="targetPoint" />
          </mxGeometry>
        </mxCell>
        <mxCell id="Xf3rw-poUCyyRdlzcPR5-4" value="No" style="edgeLabel;html=1;align=center;verticalAlign=middle;resizable=0;points=[];labelBackgroundColor=none;fontSize=12;spacingTop=0;labelBorderColor=none;" parent="Xf3rw-poUCyyRdlzcPR5-3" vertex="1" connectable="0">
          <mxGeometry x="0.3196" y="-2" relative="1" as="geometry">
            <mxPoint x="-18" y="-12" as="offset" />
          </mxGeometry>
        </mxCell>
        <mxCell id="Xf3rw-poUCyyRdlzcPR5-5" style="edgeStyle=orthogonalEdgeStyle;rounded=0;orthogonalLoop=1;jettySize=auto;html=1;exitX=0.5;exitY=1;exitDx=0;exitDy=0;shadow=0;textShadow=0;sketch=1;curveFitting=1;jiggle=2;flowAnimation=0;fillColor=#ffe6cc;strokeColor=#d79b00;strokeWidth=2;" parent="1" source="Xf3rw-poUCyyRdlzcPR5-2" edge="1">
          <mxGeometry relative="1" as="geometry">
            <mxPoint x="230" y="350" as="sourcePoint" />
            <mxPoint x="160" y="450" as="targetPoint" />
          </mxGeometry>
        </mxCell>
        <mxCell id="Xf3rw-poUCyyRdlzcPR5-6" value="Yes&lt;br&gt;&lt;font style=&quot;font-size: 12px;&quot;&gt;&lt;i&gt;&amp;nbsp;&amp;nbsp; &lt;font style=&quot;font-size: 12px;&quot;&gt;(Rejected)&lt;/font&gt;&lt;/i&gt;&lt;/font&gt;" style="edgeLabel;html=1;align=center;verticalAlign=middle;resizable=0;points=[];labelBackgroundColor=none;fontSize=12;spacingTop=2;" parent="Xf3rw-poUCyyRdlzcPR5-5" vertex="1" connectable="0">
          <mxGeometry x="0.3196" y="-2" relative="1" as="geometry">
            <mxPoint x="28" y="-24" as="offset" />
          </mxGeometry>
        </mxCell>
        <mxCell id="Xf3rw-poUCyyRdlzcPR5-13" style="edgeStyle=orthogonalEdgeStyle;rounded=0;orthogonalLoop=1;jettySize=auto;html=1;entryX=0.75;entryY=1;entryDx=0;entryDy=0;fillColor=#dae8fc;strokeColor=#6c8ebf;strokeWidth=2;sketch=1;curveFitting=1;jiggle=2;exitX=1;exitY=0.75;exitDx=0;exitDy=0;" parent="1" source="Xf3rw-poUCyyRdlzcPR5-8" target="Xf3rw-poUCyyRdlzcPR5-1" edge="1">
          <mxGeometry relative="1" as="geometry">
            <Array as="points">
              <mxPoint x="740" y="305" />
              <mxPoint x="740" y="480" />
              <mxPoint x="435" y="480" />
            </Array>
          </mxGeometry>
        </mxCell>
        <mxCell id="Xf3rw-poUCyyRdlzcPR5-14" value="Removal from Queue when Scope closes successfully,&lt;br style=&quot;font-size: 12px;&quot;&gt;Released back into Queue when Scope unsuccessful" style="edgeLabel;html=1;align=center;verticalAlign=middle;resizable=0;points=[];labelBackgroundColor=none;fontSize=12;" parent="Xf3rw-poUCyyRdlzcPR5-13" vertex="1" connectable="0">
          <mxGeometry x="-0.2" y="-2" relative="1" as="geometry">
            <mxPoint x="-139" y="-17" as="offset" />
          </mxGeometry>
        </mxCell>
        <mxCell id="Xf3rw-poUCyyRdlzcPR5-8" value="ZIO Scope" style="swimlane;whiteSpace=wrap;html=1;fillColor=#dae8fc;strokeColor=#6c8ebf;rounded=1;swimlaneLine=1;sketch=1;curveFitting=1;jiggle=2;" parent="1" vertex="1">
          <mxGeometry x="620" y="260" width="80" height="60" as="geometry" />
        </mxCell>
        <mxCell id="2KJ0meEtOLLsPRbnw39y-1" style="edgeStyle=orthogonalEdgeStyle;rounded=0;orthogonalLoop=1;jettySize=auto;html=1;exitX=1;exitY=0.5;exitDx=0;exitDy=0;entryX=0;entryY=0.5;entryDx=0;entryDy=0;fillColor=#ffe6cc;strokeColor=#d79b00;strokeWidth=2;sketch=1;curveFitting=1;jiggle=2;" edge="1" parent="1" source="Xf3rw-poUCyyRdlzcPR5-17" target="Xf3rw-poUCyyRdlzcPR5-2">
          <mxGeometry relative="1" as="geometry">
            <mxPoint x="115" y="340" as="targetPoint" />
          </mxGeometry>
        </mxCell>
        <mxCell id="2KJ0meEtOLLsPRbnw39y-5" value="Add" style="edgeLabel;html=1;align=center;verticalAlign=middle;resizable=0;points=[];fontSize=12;labelBackgroundColor=none;" vertex="1" connectable="0" parent="2KJ0meEtOLLsPRbnw39y-1">
          <mxGeometry y="-1" relative="1" as="geometry">
            <mxPoint x="-5" y="-11" as="offset" />
          </mxGeometry>
        </mxCell>
        <mxCell id="Xf3rw-poUCyyRdlzcPR5-17" value="&lt;b&gt;5&lt;/b&gt;" style="ellipse;whiteSpace=wrap;html=1;aspect=fixed;sketch=1;curveFitting=1;jiggle=2;fillColor=#f5f5f5;fontColor=#333333;strokeColor=#666666;" parent="1" vertex="1">
          <mxGeometry x="30" y="320" width="40" height="40" as="geometry" />
        </mxCell>
        <mxCell id="Xf3rw-poUCyyRdlzcPR5-19" value="&lt;b&gt;4&lt;/b&gt;" style="ellipse;whiteSpace=wrap;html=1;aspect=fixed;sketch=1;curveFitting=1;jiggle=2;fillColor=#f5f5f5;fontColor=#333333;strokeColor=#666666;" parent="1" vertex="1">
          <mxGeometry x="290" y="320" width="40" height="40" as="geometry" />
        </mxCell>
        <mxCell id="Xf3rw-poUCyyRdlzcPR5-20" value="&lt;b&gt;3&lt;/b&gt;" style="ellipse;whiteSpace=wrap;html=1;aspect=fixed;sketch=1;curveFitting=1;jiggle=2;fillColor=#f5f5f5;fontColor=#333333;strokeColor=#666666;" parent="1" vertex="1">
          <mxGeometry x="340" y="320" width="40" height="40" as="geometry" />
        </mxCell>
        <mxCell id="Xf3rw-poUCyyRdlzcPR5-26" style="edgeStyle=orthogonalEdgeStyle;rounded=0;orthogonalLoop=1;jettySize=auto;html=1;exitX=0.5;exitY=1;exitDx=0;exitDy=0;fillColor=#ffe6cc;strokeColor=#d79b00;strokeWidth=2;endArrow=none;endFill=0;" parent="1" source="Xf3rw-poUCyyRdlzcPR5-21" edge="1">
          <mxGeometry relative="1" as="geometry">
            <mxPoint x="650" y="380" as="targetPoint" />
            <Array as="points">
              <mxPoint x="410" y="380" />
            </Array>
          </mxGeometry>
        </mxCell>
        <mxCell id="Xf3rw-poUCyyRdlzcPR5-21" value="&lt;b&gt;2&lt;/b&gt;" style="ellipse;whiteSpace=wrap;html=1;aspect=fixed;sketch=1;curveFitting=1;jiggle=2;fillColor=#f5f5f5;fontColor=#333333;strokeColor=#666666;" parent="1" vertex="1">
          <mxGeometry x="390" y="320" width="40" height="40" as="geometry" />
        </mxCell>
        <mxCell id="Xf3rw-poUCyyRdlzcPR5-22" value="&lt;b&gt;1&lt;/b&gt;" style="ellipse;whiteSpace=wrap;html=1;aspect=fixed;sketch=1;curveFitting=1;jiggle=2;fillColor=#f5f5f5;fontColor=#333333;strokeColor=#666666;" parent="1" vertex="1">
          <mxGeometry x="440" y="320" width="40" height="40" as="geometry" />
        </mxCell>
        <mxCell id="2KJ0meEtOLLsPRbnw39y-2" style="edgeStyle=orthogonalEdgeStyle;rounded=0;orthogonalLoop=1;jettySize=auto;html=1;exitX=1;exitY=0.75;exitDx=0;exitDy=0;fillColor=#dae8fc;strokeColor=#6c8ebf;endArrow=none;endFill=0;strokeWidth=2;sketch=1;curveFitting=1;jiggle=2;" edge="1" parent="1" source="Xf3rw-poUCyyRdlzcPR5-27">
          <mxGeometry relative="1" as="geometry">
            <mxPoint x="740" y="385" as="targetPoint" />
          </mxGeometry>
        </mxCell>
        <mxCell id="Xf3rw-poUCyyRdlzcPR5-27" value="ZIO Scope" style="swimlane;whiteSpace=wrap;html=1;fillColor=#dae8fc;strokeColor=#6c8ebf;rounded=1;swimlaneLine=1;sketch=1;curveFitting=1;jiggle=2;" parent="1" vertex="1">
          <mxGeometry x="620" y="340" width="80" height="60" as="geometry" />
        </mxCell>
        <mxCell id="Xf3rw-poUCyyRdlzcPR5-29" value="&lt;b&gt;1&lt;/b&gt;" style="ellipse;whiteSpace=wrap;html=1;aspect=fixed;sketch=1;curveFitting=1;jiggle=2;fillColor=#f5f5f5;fontColor=#333333;strokeColor=#666666;" parent="1" vertex="1">
          <mxGeometry x="170" y="435.54" width="40" height="40" as="geometry" />
        </mxCell>
        <mxCell id="Xf3rw-poUCyyRdlzcPR5-30" value="&lt;b&gt;3&lt;/b&gt;" style="ellipse;whiteSpace=wrap;html=1;aspect=fixed;sketch=1;curveFitting=1;jiggle=2;fillColor=#f5f5f5;fontColor=#333333;strokeColor=#666666;direction=south;" parent="1" vertex="1">
          <mxGeometry x="110" y="435.54" width="40" height="40" as="geometry" />
        </mxCell>
        <mxCell id="2KJ0meEtOLLsPRbnw39y-4" value="" style="endArrow=none;html=1;rounded=0;strokeWidth=0;strokeColor=#feffff;" edge="1" parent="1">
          <mxGeometry width="50" height="50" relative="1" as="geometry">
            <mxPoint x="25" y="245" as="sourcePoint" />
            <mxPoint x="25" y="244" as="targetPoint" />
          </mxGeometry>
        </mxCell>
      </root>
    </mxGraphModel>
  </diagram>
</mxfile>
